<svg xmlns="http://www.w3.org/2000/svg" width="100" height="88.968" viewBox="0 0 100 88.968">
  <path id="heart" d="M50,88.968a5.864,5.864,0,0,1-3.866-1.453c-4.04-3.532-7.935-6.852-11.371-9.78l-.018-.015c-10.075-8.585-18.774-16-24.828-23.3C3.152,46.252,0,38.51,0,30.053A31.255,31.255,0,0,1,7.933,8.707,26.89,26.89,0,0,1,27.936,0,25.153,25.153,0,0,1,43.648,5.424,32.146,32.146,0,0,1,50,12.057a32.149,32.149,0,0,1,6.353-6.633A25.153,25.153,0,0,1,72.065,0a26.892,26.892,0,0,1,20,8.707A31.254,31.254,0,0,1,100,30.053c0,8.457-3.151,16.2-9.917,24.363-6.053,7.3-14.752,14.718-24.825,23.3-3.442,2.933-7.343,6.258-11.392,9.8A5.868,5.868,0,0,1,50,88.968ZM27.936,5.858a21.1,21.1,0,0,0-15.7,6.819A25.425,25.425,0,0,0,5.857,30.053c0,7.113,2.644,13.474,8.571,20.626,5.729,6.913,14.25,14.175,24.117,22.583l.018.015c3.449,2.94,7.359,6.272,11.429,9.83,4.094-3.565,8.01-6.9,11.466-9.847,9.866-8.408,18.386-15.668,24.115-22.581,5.927-7.152,8.57-13.513,8.57-20.626a25.425,25.425,0,0,0-6.382-17.376,21.1,21.1,0,0,0-15.7-6.819,19.428,19.428,0,0,0-12.129,4.2,28.425,28.425,0,0,0-6.76,7.822,3.7,3.7,0,0,1-6.352,0,28.4,28.4,0,0,0-6.76-7.822A19.427,19.427,0,0,0,27.936,5.858Zm0,0" fill="#d81e5b"/>
</svg>
