<svg xmlns="http://www.w3.org/2000/svg" width="328.443" height="48" viewBox="0 0 328.443 48">
  <g id="Logo" transform="translate(-74.557 -95)">
    <text id="_ATE_MY_FRIEN_S" data-name="   ATE MY FRIEN   S" transform="translate(75 134)" fill="#d81e5b" font-size="40" font-family="Lato-Light, Lato" font-weight="300"><tspan x="0" y="0" xml:space="preserve">   ATE MY FRIEN   S</tspan></text>
    <path id="heart" d="M14.686,26.131A1.722,1.722,0,0,1,13.55,25.7c-1.187-1.038-2.33-2.012-3.34-2.873l-.005,0a62.115,62.115,0,0,1-7.292-6.844A10.932,10.932,0,0,1,0,8.827a9.18,9.18,0,0,1,2.33-6.27A7.9,7.9,0,0,1,8.205,0,7.388,7.388,0,0,1,12.82,1.593a9.442,9.442,0,0,1,1.866,1.948,9.443,9.443,0,0,1,1.866-1.948A7.388,7.388,0,0,1,21.166,0a7.9,7.9,0,0,1,5.875,2.557,9.18,9.18,0,0,1,2.33,6.27,10.931,10.931,0,0,1-2.913,7.156,62.1,62.1,0,0,1-7.291,6.844c-1.011.861-2.157,1.838-3.346,2.878A1.724,1.724,0,0,1,14.686,26.131ZM8.205,1.721a6.2,6.2,0,0,0-4.61,2,7.468,7.468,0,0,0-1.874,5.1,9.2,9.2,0,0,0,2.517,6.058,61.123,61.123,0,0,0,7.083,6.633l.005,0c1.013.863,2.162,1.842,3.357,2.887,1.2-1.047,2.353-2.028,3.368-2.892a61.134,61.134,0,0,0,7.083-6.632,9.2,9.2,0,0,0,2.517-6.058,7.468,7.468,0,0,0-1.874-5.1,6.2,6.2,0,0,0-4.61-2A5.706,5.706,0,0,0,17.6,2.954a8.349,8.349,0,0,0-1.985,2.3,1.086,1.086,0,0,1-1.866,0,8.341,8.341,0,0,0-1.985-2.3A5.706,5.706,0,0,0,8.205,1.721Zm0,0" transform="translate(74.557 133.667) rotate(-90)" fill="#d81e5b"/>
    <path id="heart-2" data-name="heart" d="M14.686,26.131A1.722,1.722,0,0,1,13.55,25.7c-1.187-1.038-2.33-2.012-3.34-2.873l-.005,0a62.115,62.115,0,0,1-7.292-6.844A10.932,10.932,0,0,1,0,8.827a9.18,9.18,0,0,1,2.33-6.27A7.9,7.9,0,0,1,8.205,0,7.388,7.388,0,0,1,12.82,1.593a9.442,9.442,0,0,1,1.866,1.948,9.443,9.443,0,0,1,1.866-1.948A7.388,7.388,0,0,1,21.166,0a7.9,7.9,0,0,1,5.875,2.557,9.18,9.18,0,0,1,2.33,6.27,10.931,10.931,0,0,1-2.913,7.156,62.1,62.1,0,0,1-7.291,6.844c-1.011.861-2.157,1.838-3.346,2.878A1.724,1.724,0,0,1,14.686,26.131ZM8.205,1.721a6.2,6.2,0,0,0-4.61,2,7.468,7.468,0,0,0-1.874,5.1,9.2,9.2,0,0,0,2.517,6.058,61.123,61.123,0,0,0,7.083,6.633l.005,0c1.013.863,2.162,1.842,3.357,2.887,1.2-1.047,2.353-2.028,3.368-2.892a61.134,61.134,0,0,0,7.083-6.632,9.2,9.2,0,0,0,2.517-6.058,7.468,7.468,0,0,0-1.874-5.1,6.2,6.2,0,0,0-4.61-2A5.706,5.706,0,0,0,17.6,2.954a8.349,8.349,0,0,0-1.985,2.3,1.086,1.086,0,0,1-1.866,0,8.341,8.341,0,0,0-1.985-2.3A5.706,5.706,0,0,0,8.205,1.721Zm0,0" transform="translate(358.557 133.667) rotate(-90)" fill="#d81e5b"/>
  </g>
</svg>
